HIERARCHY
ROOT Hips
{
	OFFSET 0.000000 0.000000 0.000000
	CHANNELS 6 Xposition Yposition Zposition Zrotation Yrotation Xrotation 
	JOINT Spine1
	{
		OFFSET -0.013727 5.003762 -0.053727
		CHANNELS 3 Zrotation Yrotation Xrotation
		JOINT Spine2
		{
			OFFSET -0.000000 7.125302 -0.029825
			CHANNELS 3 Zrotation Yrotation Xrotation
			JOINT Chest
			{
				OFFSET -0.000001 7.550065 -0.815971
				CHANNELS 3 Zrotation Yrotation Xrotation
				JOINT Neck1
				{
					OFFSET -0.181676 26.311296 -0.553348
					CHANNELS 3 Zrotation Yrotation Xrotation
					JOINT Neck2
					{
						OFFSET -0.000003 7.709399 2.302586
						CHANNELS 3 Zrotation Yrotation Xrotation
						JOINT Head
						{
							OFFSET -0.000005 6.128914 1.953709
							CHANNELS 3 Zrotation Yrotation Xrotation
							JOINT HeadEnd
							{
								OFFSET 0.003598 16.065401 -1.835379
								CHANNELS 3 Zrotation Yrotation Xrotation
								End Site
								{
									OFFSET 0.000000 0.000000 0.000000
								}
							}
							JOINT Jaw
							{
								OFFSET 0.002637 0.475591 3.094941
								CHANNELS 3 Zrotation Yrotation Xrotation
								End Site
								{
									OFFSET 0.000000 0.000000 0.000000
								}
							}
							JOINT LeftEye
							{
								OFFSET 3.206381 5.380207 7.586883
								CHANNELS 3 Zrotation Yrotation Xrotation
								End Site
								{
									OFFSET 0.000000 0.000000 0.000000
								}
							}
							JOINT RightEye
							{
								OFFSET -3.222440 5.361867 7.558233
								CHANNELS 3 Zrotation Yrotation Xrotation
								End Site
								{
									OFFSET 0.000000 0.000000 0.000000
								}
							}
						}
					}
				}
				JOINT LeftShoulder
				{
					OFFSET 1.621652 23.237165 5.113413
					CHANNELS 3 Zrotation Yrotation Xrotation
					JOINT LeftArm
					{
						OFFSET 14.919845 -0.000000 -5.502326
						CHANNELS 3 Zrotation Yrotation Xrotation
						JOINT LeftForeArm
						{
							OFFSET 28.739309 0.000003 -0.002588
							CHANNELS 3 Zrotation Yrotation Xrotation
							JOINT LeftHand
							{
								OFFSET 27.093983 -0.000004 0.002608
								CHANNELS 3 Zrotation Yrotation Xrotation
								JOINT LeftHandThumb1
								{
									OFFSET 2.276480 -1.392046 3.191413
									CHANNELS 3 Zrotation Yrotation Xrotation
									JOINT LeftHandThumb2
									{
										OFFSET 4.012841 -1.828125 1.641655
										CHANNELS 3 Zrotation Yrotation Xrotation
										JOINT LeftHandThumb3
										{
											OFFSET 2.798516 0.000000 -0.000003
											CHANNELS 3 Zrotation Yrotation Xrotation
											JOINT LeftHandThumbEnd
											{
												OFFSET 3.180791 -0.000001 0.000003
												CHANNELS 3 Zrotation Yrotation Xrotation
												End Site
												{
													OFFSET 0.000000 0.000000 0.000000
												}
											}
										}
									}
								}
								JOINT LeftHandIndex1
								{
									OFFSET 3.247553 -0.531999 2.296170
									CHANNELS 3 Zrotation Yrotation Xrotation
									JOINT LeftHandIndex2
									{
										OFFSET 6.364580 0.012062 0.178600
										CHANNELS 3 Zrotation Yrotation Xrotation
										JOINT LeftHandIndex3
										{
											OFFSET 3.662367 0.000001 -0.000000
											CHANNELS 3 Zrotation Yrotation Xrotation
											JOINT LeftHandIndex4
											{
												OFFSET 2.329243 0.000003 0.000004
												CHANNELS 3 Zrotation Yrotation Xrotation
												JOINT LeftHandIndexEnd
												{
													OFFSET 2.759619 -0.180538 -0.113024
													CHANNELS 3 Zrotation Yrotation Xrotation
													End Site
													{
														OFFSET 0.000000 0.000000 0.000000
													}
												}
											}
										}
									}
								}
								JOINT LeftHandMiddle1
								{
									OFFSET 3.163499 0.240982 1.000332
									CHANNELS 3 Zrotation Yrotation Xrotation
									JOINT LeftHandMiddle2
									{
										OFFSET 6.190778 -0.259276 -1.002548
										CHANNELS 3 Zrotation Yrotation Xrotation
										JOINT LeftHandMiddle3
										{
											OFFSET 4.356522 -0.000006 0.000000
											CHANNELS 3 Zrotation Yrotation Xrotation
											JOINT LeftHandMiddle4
											{
												OFFSET 2.996875 -0.000006 0.000001
												CHANNELS 3 Zrotation Yrotation Xrotation
												JOINT LeftHandMiddleEnd
												{
													OFFSET 2.304294 -0.294571 -0.031740
													CHANNELS 3 Zrotation Yrotation Xrotation
													End Site
													{
														OFFSET 0.000000 0.000000 0.000000
													}
												}
											}
										}
									}
								}
								JOINT LeftHandRing1
								{
									OFFSET 2.882642 -0.053650 -0.322543
									CHANNELS 3 Zrotation Yrotation Xrotation
									JOINT LeftHandRing2
									{
										OFFSET 5.854542 -0.486203 -1.373841
										CHANNELS 3 Zrotation Yrotation Xrotation
										JOINT LeftHandRing3
										{
											OFFSET 4.350581 0.000001 0.000003
											CHANNELS 3 Zrotation Yrotation Xrotation
											JOINT LeftHandRing4
											{
												OFFSET 2.651323 0.000008 0.000003
												CHANNELS 3 Zrotation Yrotation Xrotation
												JOINT LeftHandRingEnd
												{
													OFFSET 1.936111 0.077685 -0.000070
													CHANNELS 3 Zrotation Yrotation Xrotation
													End Site
													{
														OFFSET 0.000000 0.000000 0.000000
													}
												}
											}
										}
									}
								}
								JOINT LeftHandPinky1
								{
									OFFSET 2.865499 -0.310004 -1.600378
									CHANNELS 3 Zrotation Yrotation Xrotation
									JOINT LeftHandPinky2
									{
										OFFSET 5.087853 -1.331142 -1.771231
										CHANNELS 3 Zrotation Yrotation Xrotation
										JOINT LeftHandPinky3
										{
											OFFSET 3.070976 0.000003 0.000000
											CHANNELS 3 Zrotation Yrotation Xrotation
											JOINT LeftHandPinky4
											{
												OFFSET 1.549667 0.000000 0.000002
												CHANNELS 3 Zrotation Yrotation Xrotation
												JOINT LeftHandPinkyEnd
												{
													OFFSET 1.944894 -0.157801 0.057219
													CHANNELS 3 Zrotation Yrotation Xrotation
													End Site
													{
														OFFSET 0.000000 0.000000 0.000000
													}
												}
											}
										}
									}
								}
							}
						}
					}
				}
				JOINT RightShoulder
				{
					OFFSET -1.380118 23.180309 5.214158
					CHANNELS 3 Zrotation Yrotation Xrotation
					JOINT RightArm
					{
						OFFSET -15.037197 0.000011 -5.545604
						CHANNELS 3 Zrotation Yrotation Xrotation
						JOINT RightForeArm
						{
							OFFSET -28.736639 0.000003 -0.002597
							CHANNELS 3 Zrotation Yrotation Xrotation
							JOINT RightHand
							{
								OFFSET -27.133617 -0.000001 0.002612
								CHANNELS 3 Zrotation Yrotation Xrotation
								JOINT RightHandThumb1
								{
									OFFSET -2.274036 -1.383990 3.163127
									CHANNELS 3 Zrotation Yrotation Xrotation
									JOINT RightHandThumb2
									{
										OFFSET -4.011429 -1.827468 1.640914
										CHANNELS 3 Zrotation Yrotation Xrotation
										JOINT RightHandThumb3
										{
											OFFSET -2.794934 -0.000004 -0.000004
											CHANNELS 3 Zrotation Yrotation Xrotation
											JOINT RightHandThumbEnd
											{
												OFFSET -3.183855 0.000003 -0.000000
												CHANNELS 3 Zrotation Yrotation Xrotation
												End Site
												{
													OFFSET 0.000000 0.000000 0.000000
												}
											}
										}
									}
								}
								JOINT RightHandIndex1
								{
									OFFSET -3.253269 -0.520059 2.282866
									CHANNELS 3 Zrotation Yrotation Xrotation
									JOINT RightHandIndex2
									{
										OFFSET -6.341918 0.012473 0.178265
										CHANNELS 3 Zrotation Yrotation Xrotation
										JOINT RightHandIndex3
										{
											OFFSET -3.654875 -0.000009 -0.000001
											CHANNELS 3 Zrotation Yrotation Xrotation
											JOINT RightHandIndex4
											{
												OFFSET -2.327586 -0.000000 0.000000
												CHANNELS 3 Zrotation Yrotation Xrotation
												JOINT RightHandIndexEnd
												{
													OFFSET -2.761789 -0.180657 -0.113079
													CHANNELS 3 Zrotation Yrotation Xrotation
													End Site
													{
														OFFSET 0.000000 0.000000 0.000000
													}
												}
											}
										}
									}
								}
								JOINT RightHandMiddle1
								{
									OFFSET -3.168106 0.246593 1.001030
									CHANNELS 3 Zrotation Yrotation Xrotation
									JOINT RightHandMiddle2
									{
										OFFSET -6.180829 -0.258836 -1.000896
										CHANNELS 3 Zrotation Yrotation Xrotation
										JOINT RightHandMiddle3
										{
											OFFSET -4.348906 -0.000000 -0.000001
											CHANNELS 3 Zrotation Yrotation Xrotation
											JOINT RightHandMiddle4
											{
												OFFSET -3.000244 -0.000004 -0.000003
												CHANNELS 3 Zrotation Yrotation Xrotation
												JOINT RightHandMiddleEnd
												{
													OFFSET -2.302518 -0.294371 -0.031706
													CHANNELS 3 Zrotation Yrotation Xrotation
													End Site
													{
														OFFSET 0.000000 0.000000 0.000000
													}
												}
											}
										}
									}
								}
								JOINT RightHandRing1
								{
									OFFSET -2.885694 -0.067952 -0.308858
									CHANNELS 3 Zrotation Yrotation Xrotation
									JOINT RightHandRing2
									{
										OFFSET -5.854197 -0.486132 -1.373732
										CHANNELS 3 Zrotation Yrotation Xrotation
										JOINT RightHandRing3
										{
											OFFSET -4.338814 -0.000004 0.000000
											CHANNELS 3 Zrotation Yrotation Xrotation
											JOINT RightHandRing4
											{
												OFFSET -2.654906 -0.000004 0.000004
												CHANNELS 3 Zrotation Yrotation Xrotation
												JOINT RightHandRingEnd
												{
													OFFSET -1.933570 0.077524 -0.000052
													CHANNELS 3 Zrotation Yrotation Xrotation
													End Site
													{
														OFFSET 0.000000 0.000000 0.000000
													}
												}
											}
										}
									}
								}
								JOINT RightHandPinky1
								{
									OFFSET -2.866429 -0.342798 -1.584145
									CHANNELS 3 Zrotation Yrotation Xrotation
									JOINT RightHandPinky2
									{
										OFFSET -5.091370 -1.332054 -1.772385
										CHANNELS 3 Zrotation Yrotation Xrotation
										JOINT RightHandPinky3
										{
											OFFSET -3.062666 -0.000006 0.000000
											CHANNELS 3 Zrotation Yrotation Xrotation
											JOINT RightHandPinky4
											{
												OFFSET -1.546527 0.000005 -0.000002
												CHANNELS 3 Zrotation Yrotation Xrotation
												JOINT RightHandPinkyEnd
												{
													OFFSET -1.945122 -0.157721 0.057211
													CHANNELS 3 Zrotation Yrotation Xrotation
													End Site
													{
														OFFSET 0.000000 0.000000 0.000000
													}
												}
											}
										}
									}
								}
							}
						}
					}
				}
			}
		}
	}
	JOINT LeftLeg
	{
		OFFSET 10.043214 -8.434526 2.595655
		CHANNELS 3 Zrotation Yrotation Xrotation
		JOINT LeftShin
		{
			OFFSET -0.000002 -43.221752 -0.802913
			CHANNELS 3 Zrotation Yrotation Xrotation
			JOINT LeftFoot
			{
				OFFSET 0.000001 -42.155094 -3.481523
				CHANNELS 3 Zrotation Yrotation Xrotation
				JOINT LeftToeBase
				{
					OFFSET 0.000000 -5.059475 13.231529
					CHANNELS 3 Zrotation Yrotation Xrotation
					JOINT LeftToeEnd
					{
						OFFSET -0.009607 -1.647615 6.513017
						CHANNELS 3 Zrotation Yrotation Xrotation
						End Site
						{
							OFFSET 0.000000 0.000000 0.000000
						}
					}
				}
			}
		}
	}
	JOINT RightLeg
	{
		OFFSET -10.047277 -8.295259 2.620317
		CHANNELS 3 Zrotation Yrotation Xrotation
		JOINT RightShin
		{
			OFFSET 0.000001 -43.362209 -0.805556
			CHANNELS 3 Zrotation Yrotation Xrotation
			JOINT RightFoot
			{
				OFFSET 0.000002 -42.117393 -3.478398
				CHANNELS 3 Zrotation Yrotation Xrotation
				JOINT RightToeBase
				{
					OFFSET -0.000001 -5.079609 13.284196
					CHANNELS 3 Zrotation Yrotation Xrotation
					JOINT RightToeEnd
					{
						OFFSET 0.009532 -1.634383 6.460591
						CHANNELS 3 Zrotation Yrotation Xrotation
						End Site
						{
							OFFSET 0.000000 0.000000 0.000000
						}
					}
				}
			}
		}
	}
}
MOTION
Frames: 4
Frame Time: 0.033333
3.500563 98.205032 -4.963912 0.207541 -0.430825 8.550244 0.289202 -0.023361 7.819969 -0.078574 -0.308698 -2.142943 0.561154 -1.836062 17.553667 6.654957 -2.322788 24.922825 -0.325935 1.167913 -3.661899 1.398871 0.169075 1.546010 0.000077 -0.000022 0.000004 0.034771 -0.007383 -0.153362 0.817694 -3.787655 -10.973726 -0.749812 3.753198 -10.951787 -5.860401 -2.864565 16.591753 -42.870388 -12.533957 18.850195 -0.600029 -69.657166 1.669324 7.522722 5.424850 -20.704784 -5.882100 9.861276 0.702593 -10.936860 -0.360575 7.156200 0.000002 8.774812 0.000000 -15.734637 18.723879 6.354456 -1.844031 2.498500 -2.507276 -10.163589 4.678940 4.621106 -20.975994 -0.000005 0.000004 -21.226254 2.451691 -3.593991 0.000002 -0.000007 -0.000002 -1.362681 2.240797 -0.746321 -21.334890 0.584907 3.008319 -13.821197 -0.000004 0.000000 -23.887135 -0.249081 -0.839482 -59.793537 2.785186 -1.378090 -0.294024 1.679685 0.833256 -14.218194 0.093215 1.300579 -34.212002 -0.287565 0.967172 -20.033178 0.964534 1.212844 0.000000 0.000000 0.000001 -3.440386 0.788232 0.501655 -15.928169 -3.167307 2.999703 -6.338817 -0.000002 0.000001 -18.123415 3.648176 -4.905659 -0.000002 -0.000001 -0.000003 -0.420732 10.028842 13.796699 56.054745 7.329032 11.256127 -1.135194 66.214073 -0.340550 -0.801207 6.949243 -12.049546 2.243539 -5.255032 -3.180156 14.282877 -0.826595 6.952495 -0.000003 -12.690591 0.000002 16.301489 -18.061731 2.436273 1.665665 -1.955920 -2.878295 4.727791 -4.170582 4.993918 11.020510 0.000003 -0.000001 12.109030 -3.735708 -2.866780 -0.000001 -0.000001 0.000000 1.291984 -1.928548 -1.498087 14.800111 0.567468 3.865604 14.242551 -1.341734 -6.660649 19.631939 0.143926 -0.648243 50.116669 -0.882834 -6.753738 0.353029 -1.511150 -0.031939 20.222767 3.684308 2.316629 18.787245 0.000005 0.000001 10.751610 -0.479868 1.397905 0.000002 0.000001 -0.000002 3.273803 0.305947 -0.580111 21.486790 11.830362 2.266131 8.162916 0.000001 0.000000 18.399050 -3.798980 -4.940565 0.000003 0.000000 -0.000002 4.761265 2.893930 -20.933605 0.088903 -0.004592 25.010292 -8.253336 6.780198 -12.463491 1.619280 -1.971643 1.306023 0.000000 -0.000000 0.000002 -7.208775 -9.151856 -19.763802 0.062444 0.368924 22.991098 10.187711 -5.478204 -10.438965 -1.437167 0.944299 0.675991 -0.000000 -0.000000 -0.000001 
3.562166 98.381844 -4.793175 0.166463 -0.371064 8.231645 0.235128 0.014336 7.250969 -0.123804 -0.306111 -2.383099 0.522578 -1.755969 17.163956 6.743449 -2.391242 24.649881 -0.402865 1.046902 -3.645788 1.395166 -0.025071 1.295361 0.000077 -0.000022 0.000007 0.039219 -0.008945 -0.150319 0.811150 -3.786573 -10.990791 -0.742310 3.750216 -10.945890 -6.020896 -2.649807 16.592409 -43.038811 -12.431982 19.575716 -0.413829 -68.774391 1.463188 7.292274 5.123905 -19.620411 -5.882101 9.861279 0.702590 -10.936859 -0.360574 7.156196 0.000001 8.774815 -0.000003 -15.763014 18.733431 6.352714 -1.844030 2.498502 -2.507277 -10.163590 4.678939 4.621105 -20.975994 -0.000005 0.000004 -21.226250 2.451691 -3.593992 0.000002 -0.000006 -0.000001 -1.362680 2.240795 -0.746324 -21.334890 0.584907 3.008323 -13.821194 -0.000004 0.000002 -23.887125 -0.249080 -0.839479 -59.830418 2.775030 -1.391557 -0.294024 1.679686 0.833254 -14.218192 0.093213 1.300580 -34.212006 -0.287566 0.967172 -20.033178 0.964535 1.212845 -0.000001 -0.000000 -0.000001 -3.440386 0.788233 0.501656 -15.928171 -3.167307 2.999707 -6.338817 -0.000002 -0.000001 -18.123413 3.648176 -4.905660 -0.000003 0.000000 -0.000002 0.045919 9.914877 13.899359 55.616581 7.239652 11.760049 -1.155865 65.402542 -0.383515 -0.407229 6.957089 -12.045658 2.243540 -5.255032 -3.180156 14.282877 -0.826594 6.952497 -0.000003 -12.690591 0.000000 16.279783 -18.057598 2.444236 1.665664 -1.955920 -2.878297 4.727793 -4.170584 4.993917 11.020512 0.000003 -0.000001 12.109033 -3.735709 -2.866780 0.000001 -0.000001 -0.000001 1.291985 -1.928548 -1.498088 14.800113 0.567467 3.865602 14.242553 -1.341735 -6.660650 19.631939 0.143926 -0.648243 50.112923 -0.888539 -6.742126 0.353028 -1.511151 -0.031941 20.222773 3.684305 2.316628 18.787249 0.000004 -0.000002 10.751611 -0.479868 1.397902 0.000002 0.000001 -0.000002 3.273804 0.305947 -0.580111 21.486792 11.830361 2.266129 8.162917 0.000003 -0.000001 18.399054 -3.798978 -4.940567 0.000003 0.000000 0.000001 4.763006 3.009464 -19.930828 0.072760 -0.003237 23.890596 -8.197329 6.623612 -12.117720 1.619928 -1.978637 1.292006 0.000000 0.000000 0.000002 -7.259829 -9.278509 -18.629168 0.059084 0.362481 21.650097 10.218348 -5.443176 -9.943256 -1.434722 0.945171 0.689040 -0.000000 -0.000000 -0.000001 
3.623503 98.535904 -4.606585 0.144819 -0.288867 7.929085 0.162010 0.040362 6.689773 -0.175849 -0.289058 -2.620533 0.493057 -1.688230 16.785315 6.779051 -2.435764 24.438787 -0.448766 0.937612 -3.681292 1.389797 -0.209087 1.015295 0.000077 -0.000022 0.000004 0.024891 -0.001555 -0.140824 0.785113 -3.777182 -10.990499 -0.735515 3.756638 -10.945571 -6.164483 -2.433094 16.566481 -43.156967 -12.299489 20.285574 -0.311696 -67.967499 1.379501 7.051582 4.849152 -18.685211 -5.882101 9.861279 0.702591 -10.936857 -0.360575 7.156196 0.000002 8.774812 -0.000002 -15.763145 18.721506 6.358115 -1.844031 2.498503 -2.507274 -10.163589 4.678937 4.621101 -20.975992 -0.000005 0.000002 -21.226248 2.451693 -3.593992 0.000002 -0.000007 -0.000001 -1.362681 2.240795 -0.746323 -21.334890 0.584906 3.008322 -13.821195 -0.000004 0.000001 -23.887129 -0.249082 -0.839479 -59.845295 2.764333 -1.386143 -0.294024 1.679686 0.833257 -14.218194 0.093214 1.300578 -34.212006 -0.287566 0.967171 -20.033176 0.964534 1.212843 -0.000000 -0.000001 0.000000 -3.440385 0.788231 0.501656 -15.928165 -3.167308 2.999703 -6.338815 -0.000001 0.000001 -18.123415 3.648173 -4.905662 -0.000003 0.000000 -0.000002 0.511211 9.755178 14.000877 55.265266 7.130360 12.254144 -1.243043 64.531784 -0.511764 -0.039226 6.890210 -12.069236 2.243540 -5.255031 -3.180156 14.282878 -0.826593 6.952497 -0.000002 -12.690588 0.000000 16.244640 -18.084288 2.487668 1.665664 -1.955921 -2.878297 4.727794 -4.170581 4.993918 11.020513 0.000003 -0.000001 12.109035 -3.735709 -2.866778 0.000001 -0.000000 -0.000000 1.291984 -1.928546 -1.498088 14.800111 0.567468 3.865605 14.242553 -1.341736 -6.660650 19.631939 0.143924 -0.648242 50.149826 -0.901239 -6.746689 0.353029 -1.511148 -0.031940 20.222771 3.684304 2.316629 18.787247 0.000004 0.000002 10.751613 -0.479867 1.397903 0.000002 0.000001 -0.000003 3.273805 0.305946 -0.580110 21.486794 11.830360 2.266134 8.162917 -0.000001 0.000001 18.399054 -3.798977 -4.940566 0.000003 -0.000001 -0.000001 4.743423 3.090136 -18.986591 0.053483 -0.025128 22.842682 -8.150711 6.489639 -11.806627 1.618595 -1.977673 1.310665 0.000000 -0.000000 0.000002 -7.320938 -9.391891 -17.560453 0.058953 0.335575 20.388885 10.242892 -5.460232 -9.504831 -1.432635 0.962739 0.679006 0.000000 0.000000 -0.000001 
3.642229 98.687073 -4.441899 0.135798 -0.194202 7.652631 0.076605 0.071576 6.140269 -0.217962 -0.277948 -2.844560 0.447909 -1.644545 16.407957 6.738064 -2.450564 24.140121 -0.480777 0.846315 -3.677468 1.376480 -0.382960 0.735147 0.000077 -0.000022 0.000005 0.022135 0.002393 -0.138813 0.765141 -3.769210 -10.979339 -0.728739 3.760726 -10.948872 -6.318409 -2.229622 16.514181 -43.264355 -12.157460 20.962498 -0.232541 -67.177185 1.299824 6.853065 4.595816 -17.801506 -5.882101 9.861278 0.702592 -10.936858 -0.360575 7.156197 0.000000 8.774812 -0.000003 -15.772968 18.707645 6.365888 -1.844030 2.498502 -2.507276 -10.163589 4.678940 4.621104 -20.975992 -0.000005 0.000002 -21.226250 2.451692 -3.593993 0.000001 -0.000007 -0.000002 -1.362681 2.240795 -0.746321 -21.334894 0.584908 3.008321 -13.821197 -0.000002 0.000001 -23.887129 -0.249077 -0.839478 -59.855976 2.789040 -1.374390 -0.294024 1.679687 0.833257 -14.218194 0.093215 1.300579 -34.212002 -0.287562 0.967171 -20.033176 0.964536 1.212840 0.000000 0.000000 0.000000 -3.440386 0.788232 0.501654 -15.928165 -3.167307 2.999703 -6.338817 0.000000 0.000000 -18.123413 3.648174 -4.905661 -0.000002 0.000001 -0.000000 0.961101 9.552332 14.099098 54.997635 6.984700 12.592242 -1.130645 63.688416 -0.498834 0.284611 6.804583 -12.084498 2.243540 -5.255033 -3.180155 14.282878 -0.826595 6.952498 -0.000003 -12.690588 -0.000001 16.240973 -18.084249 2.476468 1.665664 -1.955920 -2.878297 4.727792 -4.170582 4.993918 11.020512 0.000003 -0.000001 12.109029 -3.735709 -2.866782 0.000001 -0.000001 -0.000000 1.291985 -1.928547 -1.498086 14.800113 0.567468 3.865604 14.242551 -1.341734 -6.660647 19.631939 0.143926 -0.648244 50.207680 -0.915804 -6.762177 0.353028 -1.511148 -0.031940 20.222769 3.684304 2.316627 18.787247 0.000003 0.000000 10.751610 -0.479869 1.397905 0.000003 0.000001 -0.000002 3.273803 0.305948 -0.580109 21.486794 11.830365 2.266134 8.162917 0.000000 -0.000001 18.399054 -3.798977 -4.940566 0.000004 -0.000001 -0.000001 4.734648 3.135349 -18.110252 0.038913 -0.045142 21.864618 -8.097278 6.341740 -11.434256 1.618414 -1.971252 1.329633 -0.000000 -0.000001 0.000002 -7.380844 -9.508518 -16.587875 0.061996 0.327153 19.271456 10.241035 -5.517252 -9.036347 -1.431635 0.973348 0.661541 0.000000 0.000000 -0.000001 
